<svg xmlns="http://www.w3.org/2000/svg" width="48" height="48" viewBox="0 0 48 48" fill="none">
<circle cx="24" cy="24" r="24" transform="matrix(1 0 0 -1 0 48)" fill="#0BBC5C"/>
<rect width="10.4981" height="4.19519" rx="2.0976" transform="matrix(-1 0.000458152 0.000459445 -1 26.1707 19.4651)" fill="#76DBA4"/>
<rect width="10.4981" height="4.19519" rx="2.0976" transform="matrix(-1 0.000458152 0.000459445 -1 32.4706 26.5542)" fill="#7CE0AA"/>
<path d="M23.584 30.7674C23.35 31.8591 22.3472 32.6118 21.2335 32.5317C19.8805 32.4343 18.9248 31.1657 19.2047 29.8384L21.9052 17.0325C22.1227 16.0012 23.0242 15.2569 24.078 15.2385C25.5325 15.2131 26.6312 16.5481 26.3264 17.9703L23.584 30.7674Z" fill="white"/>
<path d="M32.5343 28.3903C32.2869 29.5403 31.2028 30.312 30.0351 30.1694C28.711 30.0076 27.8106 28.7459 28.0883 27.4412L29.4916 20.8474C29.7219 19.7657 30.695 19.0046 31.8004 19.0418C33.2209 19.0895 34.2517 20.4104 33.9527 21.7997L32.5343 28.3903Z" fill="white"/>
</svg>