<svg xmlns="http://www.w3.org/2000/svg" width="48" height="48" viewBox="0 0 48 48" fill="none">
<circle cx="24" cy="24" r="24" transform="matrix(1 0 0 -1 0 48)" fill="#1F3DE2"/>
<rect width="10.0742" height="4.18023" rx="2.09011" transform="matrix(-0.996109 0.000477453 0.000440749 -1.00358 24.2281 20.5601)" fill="#9BA5DC"/>
<rect width="10.0742" height="4.18023" rx="2.09011" transform="matrix(-0.996109 0.000477453 0.000440749 -1.00358 30.2501 27.6492)" fill="#9BA5DC"/>
<path d="M21.7378 31.9497C21.5241 32.9928 20.5801 33.7073 19.521 33.6276C18.2238 33.5299 17.2942 32.2992 17.5519 31.0208L20.1685 18.0404C20.3665 17.0581 21.2102 16.3521 22.208 16.3338C23.6034 16.3083 24.6761 17.6055 24.3949 18.9783L21.7378 31.9497Z" fill="white"/>
<path d="M30.2928 29.5744C30.0664 30.675 29.0427 31.4075 27.9299 31.2653C26.6615 31.1032 25.7877 29.8808 26.043 28.6257L27.4207 21.8538C27.6307 20.8216 28.5446 20.0993 29.5939 20.1362C30.9564 20.1841 31.9608 21.4663 31.6852 22.8058L30.2928 29.5744Z" fill="white"/>
</svg>